<svg xmlns="http://www.w3.org/2000/svg" width="16.84" height="16.84" viewBox="0 0 16.84 16.84">
  <path id="Path_297" data-name="Path 297" d="M11.9,2.157c-1.024,0-.978.009-2,.009-1.319,0-2.638.005-3.956,0A1.079,1.079,0,0,1,5.684.034,1.715,1.715,0,0,1,6.086,0Q10.8,0,15.521,0a1.1,1.1,0,0,1,1.241,1.22q0,4.769,0,9.537a1.073,1.073,0,0,1-.775,1.1,1.013,1.013,0,0,1-1.182-.423,1.524,1.524,0,0,1-.2-.73c-.015-2.187-.009-4.374-.009-6.561V3.718c-.138.128-.091-1.378-1.552-1.444C11.62,2.164,11.9,2.157,11.9,2.157Z" transform="translate(11.853 20.273) rotate(-135)" fill="#fff" opacity="0.5"/>
</svg>
