<svg xmlns="http://www.w3.org/2000/svg" width="43.703" height="54.764" viewBox="0 0 43.703 54.764">
  <g id="noun-protection-lock-5104823" transform="translate(-178.319 -4.373)">
    <path id="Path_19" data-name="Path 19" d="M367.494,228.332a3.281,3.281,0,1,0-3.908,0,.442.442,0,0,1,.177.406l-.7,5.94h4.962l-.7-5.94a.441.441,0,0,1,.175-.406Z" transform="translate(-165.37 -196.031)" fill="#fcd178"/>
    <path id="Path_20" data-name="Path 20" d="M222.022,34.988V12a.442.442,0,0,0-.494-.439c-15.173,1.811-20.93-6.9-20.987-6.984a.442.442,0,0,0-.745,0c-.056.088-5.775,8.8-20.983,6.983a.442.442,0,0,0-.494.439V34.975a24.566,24.566,0,0,0,2.505,10.444c2.421,5.006,7.726,11.449,19.26,13.71a.438.438,0,0,0,.17,0c11.536-2.261,16.843-8.7,19.263-13.71h0a24.559,24.559,0,0,0,2.5-10.43Zm-21.76,20.075a.417.417,0,0,1-.094.01.437.437,0,0,1-.093-.01c-7.589-1.642-12.89-5.481-15.757-11.411a21.222,21.222,0,0,1-2.112-8.628V16.11a.44.44,0,0,1,.132-.315.459.459,0,0,1,.317-.127q.309,0,.612.005c8.342,0,13.638-3.048,16.613-5.6a.442.442,0,0,1,.574,0c2.978,2.557,8.276,5.6,16.618,5.6q.3,0,.612-.005h0A.464.464,0,0,1,218,15.8a.443.443,0,0,1,.133.315V35.024c.013.661.1,16.143-17.873,20.04Z" fill="#fcd178"/>
  </g>
</svg>
