<svg xmlns="http://www.w3.org/2000/svg" width="19.121" height="19.592" viewBox="0 0 19.121 19.592">
  <g id="Group_98" data-name="Group 98" transform="translate(0 0)">
    <path id="Path_287" data-name="Path 287" d="M-386.428,553.073a2.1,2.1,0,0,1,1.01.469,1.439,1.439,0,0,1,.456,1.1q0,4.059,0,8.118c0,1.323,0,2.646,0,3.969a1.5,1.5,0,0,1-1.311,1.473,1.79,1.79,0,0,1-.434.035.529.529,0,0,1-.53-.43.5.5,0,0,1,.375-.542c.026-.008.053-.014.081-.02.589-.125.64-.181.64-.7q0-5.909,0-11.818a1.484,1.484,0,0,0-.023-.267.428.428,0,0,0-.409-.352,1.951,1.951,0,0,0-.27-.02q-4.792,0-9.584,0a1.309,1.309,0,0,0-.371.039.478.478,0,0,0-.337.437.561.561,0,0,1-.661.463.525.525,0,0,1-.507-.6,1.544,1.544,0,0,1,1.382-1.33.438.438,0,0,0,.074-.028Z" transform="translate(404.083 -553.073)" fill="#fff"/>
    <path id="Path_288" data-name="Path 288" d="M-467.994,629.622q0-3.229,0-6.458a1.5,1.5,0,0,1,1.113-1.482,2.838,2.838,0,0,1,.945-.156q5.568-.016,11.135,0c1.245,0,2.052.665,2.052,1.669q0,6.429,0,12.859c0,1.01-.819,1.663-2.083,1.663h-11.088c-1.259,0-2.075-.657-2.075-1.669Q-468,632.832-467.994,629.622Zm1.345-.019v3.737q0,1.351,0,2.7a.493.493,0,0,0,.362.533,1.512,1.512,0,0,0,.445.047q5.46,0,10.921,0c.624,0,.818-.154.818-.649q0-6.362,0-12.725c0-.491-.191-.645-.794-.645h-10.944c-.617,0-.807.154-.807.655Q-466.649,626.432-466.649,629.6Z" transform="translate(467.994 -618.119)" fill="#fff"/>
  </g>
</svg>
