<svg xmlns="http://www.w3.org/2000/svg" width="21" height="24.948" viewBox="0 0 21 24.948">
  <g id="Group_131" data-name="Group 131" transform="translate(-358 -458.052)">
    <path id="Path_293" data-name="Path 293" d="M-151.737,1203.877h-2.044c-.877,0-1.755,0-2.632,0a.719.719,0,0,1-.719-.643.717.717,0,0,1,.548-.773,1.143,1.143,0,0,1,.268-.022h6.276a.733.733,0,0,1,.825.812q0,3.172,0,6.345a.714.714,0,0,1-.516.732.674.674,0,0,1-.786-.281,1.014,1.014,0,0,1-.132-.485c-.01-1.455-.006-2.91-.006-4.365v-.284c-.092.085-.151.137-.207.192q-5,4.995-9.988,9.991a.768.768,0,0,1-.824.268.714.714,0,0,1-.342-1.132,2.468,2.468,0,0,1,.187-.194q4.963-4.964,9.927-9.926a1.818,1.818,0,0,1,.214-.16Z" transform="translate(1113.07 1432.145) rotate(135)" fill="#fff"/>
    <rect id="Rectangle_68" data-name="Rectangle 68" width="21" height="2" rx="1" transform="translate(358 481)" fill="#fff"/>
  </g>
</svg>
