<svg xmlns="http://www.w3.org/2000/svg" width="124" height="124" viewBox="0 0 124 124">
  <g id="Group_51" data-name="Group 51" transform="translate(-3043 -1536.73)">
    <circle id="Ellipse_3" data-name="Ellipse 3" cx="62" cy="62" r="62" transform="translate(3043 1536.73)" fill="none"/>
    <path id="Path_57" data-name="Path 57" d="M254.434,95.723c-5.924-5.449-12.8-5.449-18.719-.474L169.37,161.595a5.187,5.187,0,0,0-.711,1.184L162.972,184.1c-.474,1.9.948,3.081,2.843,2.843l21.325-5.687c.474,0,.711-.237,1.185-.711L254.67,114.2a11.966,11.966,0,0,0,3.554-9.241A12,12,0,0,0,254.434,95.723Zm-28.2,15.876,4.739,4.739-51.654,51.653-4.739-4.739ZM168.9,181.5l3.554-13.742,9.952,9.952Zm18.008-5.923-4.265-4.265,51.653-51.653,4.265,4.265ZM242.112,120.6,229.79,108.279l1.9-1.9,12.321,12.321Zm9.478-9.478-4.265,4.265L235,103.066l4.265-4.265c3.554-3.317,8.53-3.081,12.084.474A8.514,8.514,0,0,1,251.59,111.123Z" transform="translate(2894.301 1459.589)" fill="#fff"/>
  </g>
</svg>
