<svg xmlns="http://www.w3.org/2000/svg" width="27.304" height="17.639" viewBox="0 0 27.304 17.639">
  <g id="Group_132" data-name="Group 132" transform="translate(-825.762 -1325.27)">
    <path id="Path_328" data-name="Path 328" d="M825.762,1333.771a3.9,3.9,0,0,1,1.065-1.593,24.491,24.491,0,0,1,6.181-5.094,12.669,12.669,0,0,1,7.153-1.788,13.01,13.01,0,0,1,5.263,1.575,23.528,23.528,0,0,1,5.868,4.554c.426.44.84.893,1.236,1.361a1.847,1.847,0,0,1-.014,2.621,24.94,24.94,0,0,1-6.135,5.355,14.519,14.519,0,0,1-5.366,2.029,11.3,11.3,0,0,1-5.479-.565,19.25,19.25,0,0,1-6.7-4.2c-.762-.7-1.461-1.476-2.179-2.227a3.231,3.231,0,0,1-.891-1.392Zm14-6.825a11.052,11.052,0,0,0-4.536.925,21.926,21.926,0,0,0-7.68,6.045c-.121.14-.091.24.018.368a22.889,22.889,0,0,0,6.749,5.592,11.308,11.308,0,0,0,4.589,1.344,9.992,9.992,0,0,0,4.566-.855,21.7,21.7,0,0,0,7.824-6.111c.112-.13.083-.23-.018-.348a22.708,22.708,0,0,0-6.887-5.67A10.722,10.722,0,0,0,839.759,1326.945Z" fill="#fff"/>
    <path id="Path_329" data-name="Path 329" d="M940.75,1366.528a5.879,5.879,0,1,1-5.889,5.868A5.873,5.873,0,0,1,940.75,1366.528Zm-4.216,5.872a4.206,4.206,0,1,0,4.212-4.2A4.223,4.223,0,0,0,936.534,1372.4Z" transform="translate(-101.328 -38.319)" fill="#fff"/>
  </g>
</svg>
