<svg xmlns="http://www.w3.org/2000/svg" width="11.681" height="11.681" viewBox="0 0 11.681 11.681">
  <path id="Path_295" data-name="Path 295" d="M6.652.918H5.35c-.559,0-1.118,0-1.677,0a.457.457,0,0,1-.109-.9A.727.727,0,0,1,3.733,0h4a.467.467,0,0,1,.526.517q0,2.022,0,4.043a.455.455,0,0,1-.329.467.429.429,0,0,1-.5-.179.646.646,0,0,1-.084-.309c-.006-.927,0-1.854,0-2.781V1.576c-.058.054-.1.087-.132.123Q4.027,4.882.845,8.066a.49.49,0,0,1-.525.171A.455.455,0,0,1,.1,7.515a1.56,1.56,0,0,1,.119-.124Q3.383,4.228,6.547,1.066a1.152,1.152,0,0,1,.137-.1Z" transform="translate(5.841) rotate(45)" fill="#fff"/>
</svg>
