<svg id="Group_50" data-name="Group 50" xmlns="http://www.w3.org/2000/svg" width="1356.162" height="181" viewBox="0 0 1356.162 181">
  <g id="Group_47" data-name="Group 47">
    <g id="Guardian" style="isolation: isolate">
      <g id="Group_63" data-name="Group 63" style="isolation: isolate">
        <path id="Path_46" data-name="Path 46" d="M264.27,57.852l-8.35,7.91a63.763,63.763,0,0,0-19.738-13.44,53.118,53.118,0,0,0-20.911-4.578,49.853,49.853,0,0,0-24.133,6.226,45.182,45.182,0,0,0-17.762,16.882,43.571,43.571,0,0,0-6.3,22.522,44.474,44.474,0,0,0,6.518,23.108,46.279,46.279,0,0,0,18.018,17.211,51.807,51.807,0,0,0,25.2,6.263q16.626,0,28.125-9.375a37.007,37.007,0,0,0,13.623-24.316h-34.35v-10.4h46.435q-.148,24.978-14.831,39.661T216.516,150.21q-29.883,0-47.314-20.361a54.12,54.12,0,0,1-13.4-36.255A55.576,55.576,0,0,1,163.489,65.1a54.688,54.688,0,0,1,21.094-20.619A61.458,61.458,0,0,1,214.9,37.051a67.444,67.444,0,0,1,25.781,4.943Q252.771,46.94,264.27,57.852Z" fill="#fff"/>
        <path id="Path_47" data-name="Path 47" d="M291.516,39.761h10.767V104.8a134.6,134.6,0,0,0,.439,14.429,23.907,23.907,0,0,0,3.736,10.656,22,22,0,0,0,9.008,7.178,28.226,28.226,0,0,0,12.232,2.893,24.16,24.16,0,0,0,10.254-2.27,22.818,22.818,0,0,0,8.2-6.3,25.724,25.724,0,0,0,4.834-9.741q1.1-4.1,1.1-16.846V39.761h10.767V104.8q0,14.43-2.82,23.327t-11.279,15.491q-8.46,6.593-20.471,6.592-13.038,0-22.339-6.226A29.964,29.964,0,0,1,293.494,127.5q-1.979-6.3-1.978-22.7Z" fill="#fff"/>
        <path id="Path_48" data-name="Path 48" d="M433.386,39.761,483.63,147.5H472l-16.945-35.449H408.642L391.858,147.5H379.846l50.9-107.739Zm-1.359,22.89-18.462,39H450.4Z" fill="#fff"/>
        <path id="Path_49" data-name="Path 49" d="M500.916,39.761h21.459q17.945,0,24.317,1.467a27.747,27.747,0,0,1,15.6,9.423q6,7.224,6.006,17.785a28.751,28.751,0,0,1-4.138,15.472,25.816,25.816,0,0,1-11.828,10.084q-7.69,3.411-21.241,3.484L569.836,147.5H556.517L517.769,97.476h-6.087V147.5H500.916Zm10.766,10.547V86.929l18.56.147q10.784,0,15.956-2.051a16.6,16.6,0,0,0,8.07-6.554,18.221,18.221,0,0,0,2.9-10.073,17.463,17.463,0,0,0-2.935-9.851,16.354,16.354,0,0,0-7.7-6.335q-4.769-1.905-15.845-1.9Z" fill="#fff"/>
        <path id="Path_50" data-name="Path 50" d="M591.37,147.5V39.761h22.338q24.171,0,35.084,3.882a46.9,46.9,0,0,1,24.5,19.043q8.824,13.551,8.826,32.3,0,16.188-6.995,28.492t-18.164,18.164q-11.171,5.86-31.311,5.859ZM601.7,137.319h12.451q22.338,0,30.981-2.781a35.735,35.735,0,0,0,19.117-14.232q6.957-10.284,6.958-25.139,0-15.586-7.544-26.637a37.986,37.986,0,0,0-21.021-15.148q-10.107-3.073-33.325-3.074H601.7Z" fill="#fff"/>
        <path id="Path_51" data-name="Path 51" d="M701.453,39.761h10.766V147.5H701.453Z" fill="#fff"/>
        <path id="Path_52" data-name="Path 52" d="M780.92,39.761,831.164,147.5H819.535L802.59,112.051H756.176L739.393,147.5H727.381l50.9-107.739Zm-1.359,22.89-18.461,39h36.834Z" fill="#fff"/>
        <path id="Path_53" data-name="Path 53" d="M847.937,147.5V39.761h2.344l71.7,82.588V39.761H932.6V147.5h-2.418L859.07,65.917V147.5Z" fill="#fff"/>
      </g>
    </g>
    <g id="Group_45" data-name="Group 45">
      <path id="Union_30" data-name="Union 30" d="M0,35.951V3.373H16.774V19.184H50.312V3.373H67.081V19.184h29.7V3.373H113.55V19.184h.082V35.951Z" fill="#fff"/>
      <path id="Union_31" data-name="Union 31" d="M56.818,178.486l-.022.014-.022-.037L0,145.684l.013-.022H0V55.117H113.635V71.885h-.079v9.584H96.787V71.885H16.771V136L56.82,159.123l39.966-23.076v-33.43h16.769v42.926l.079.137L56.863,178.461l-.022.039Z" fill="#fff"/>
    </g>
    <g id="WALLET" style="isolation: isolate">
      <g id="Group_64" data-name="Group 64" style="isolation: isolate">
        <path id="Path_54" data-name="Path 54" d="M1003.916,73.674h7.373l14.674,51.758,20.59-51.758h1.49l20.352,51.758,14.921-51.758h7.319L1070,145.5h-1.333L1047.35,91.154,1025.621,145.5h-1.341Z" fill="#fff"/>
        <path id="Path_55" data-name="Path 55" d="M1133.311,73.674l33.5,71.826h-7.752l-11.3-23.633h-30.944L1105.625,145.5h-8.008l33.936-71.826Zm-.907,15.261-12.306,26h24.554Z" fill="#fff"/>
        <path id="Path_56" data-name="Path 56" d="M1177.939,73.674h7.178v64.892h27.637V145.5h-34.815Z" fill="#fff"/>
        <path id="Path_57" data-name="Path 57" d="M1224.131,73.674h7.178v64.892h27.636V145.5h-34.814Z" fill="#fff"/>
        <path id="Path_58" data-name="Path 58" d="M1270.371,73.674h41.162v7.031h-33.984v22.51h33.691v7.031h-33.691v28.223h33.691V145.5h-40.869Z" fill="#fff"/>
        <path id="Path_59" data-name="Path 59" d="M1316.807,80.705V73.674h39.355v7.031h-16.016V145.5h-7.324V80.705Z" fill="#fff"/>
      </g>
    </g>
  </g>
  <path id="Line_4" data-name="Line 4" d="M975.729,181h-5V0h5Z" fill="#fff"/>
</svg>
