<svg xmlns="http://www.w3.org/2000/svg" width="25.241" height="25.233" viewBox="0 0 25.241 25.233">
  <g id="Group_96" data-name="Group 96" transform="translate(0 0)">
    <path id="Path_263" data-name="Path 263" d="M508.876,927.346v-.317q0-2.548,0-5.1c0-.474.1-.57.581-.57h5.629c.48,0,.581.1.582.574q0,2.815,0,5.63c0,.482-.1.582-.575.583h-5.428v1.458c0,.357,0,.713,0,1.07,0,.325-.141.48-.456.483q-1.45.011-2.9,0a.391.391,0,0,1-.435-.442q-.011-1.45,0-2.9c0-.32.147-.45.479-.455.364-.006.728,0,1.11,0v-1.314c-.279,0-.556,0-.834,0-.3,0-.487-.146-.5-.382s.182-.4.5-.405c.366,0,.732,0,1.1,0,.418,0,.538.119.54.53,0,.514,0,1.027,0,1.556Zm5.985,0v-5.175h-5.179v5.175Zm-6,.818h-2.176v2.187h2.176Z" transform="translate(-493.445 -917.943)" fill="#fff"/>
    <path id="Path_264" data-name="Path 264" d="M545.86,1084.443q0-1.422,0-2.843c0-.438.115-.556.542-.556h5.713c.412,0,.536.121.536.537q0,2.857,0,5.714c0,.427-.127.549-.56.549q-2.843,0-5.685,0c-.426,0-.546-.126-.546-.558Q545.859,1085.864,545.86,1084.443Zm.808-2.6v5.2h5.177v-5.2Z" transform="translate(-530.429 -1065.611)" fill="#fff"/>
    <path id="Path_265" data-name="Path 265" d="M389.5,1081.041h2.842c.415,0,.539.121.539.532q0,2.871,0,5.742c0,.395-.127.526-.521.526q-2.871,0-5.741,0c-.395,0-.527-.13-.527-.523q0-2.885,0-5.77c0-.379.134-.506.51-.507C387.565,1081.04,388.531,1081.041,389.5,1081.041Zm-2.6.8c-.007.069-.016.115-.016.161,0,1.6,0,3.209-.005,4.814,0,.217.1.239.273.239,1.567,0,3.134,0,4.7,0,.073,0,.145-.011.23-.019v-5.192Z" transform="translate(-382.675 -1065.609)" fill="#fff"/>
    <path id="Path_266" data-name="Path 266" d="M389.5,928.149q-1.435,0-2.87,0c-.425,0-.536-.11-.537-.535q0-2.856,0-5.713c0-.43.109-.538.531-.539q2.87,0,5.74,0c.4,0,.519.117.519.518q0,2.871,0,5.741c0,.41-.119.526-.542.527Q390.917,928.151,389.5,928.149Zm2.58-5.973H386.9v5.169h5.177Z" transform="translate(-382.676 -917.942)" fill="#fff"/>
    <path id="Path_267" data-name="Path 267" d="M443.164,1024.92h-1.312c-.947,0-1.894,0-2.842,0-.391,0-.516-.117-.518-.5q-.007-1.393,0-2.786c0-.378.133-.5.511-.5q1.393,0,2.786,0c.354,0,.494.139.5.494,0,.723,0,1.445,0,2.167v.338c.388,0,.75,0,1.113,0,.43,0,.552.123.554.553,0,.553,0,1.107,0,1.66a1.126,1.126,0,0,1-.015.224.357.357,0,0,1-.4.315.346.346,0,0,1-.362-.355c-.015-.4-.009-.806-.011-1.209C443.163,1025.2,443.164,1025.079,443.164,1024.92Zm-1.682-2.98H439.3v2.174h2.182Z" transform="translate(-431.134 -1010.206)" fill="#fff"/>
    <path id="Path_268" data-name="Path 268" d="M524.979,1042.8c0-.4,0-.764,0-1.128,0-.387.123-.507.505-.508q1.66,0,3.319,0c.369,0,.491.122.493.486q0,.858,0,1.716c0,.311-.145.472-.4.466-.237-.005-.379-.168-.386-.458-.006-.234,0-.469,0-.7v-.7h-1.1c0,.357,0,.71,0,1.063,0,.426-.129.551-.559.551h-5.682c-.047,0-.094,0-.141,0a.393.393,0,0,1-.4-.389.384.384,0,0,1,.419-.393c.769-.007,1.538,0,2.306,0Zm1.627-.01v-.819h-.812v.819Z" transform="translate(-507.095 -1028.73)" fill="#fff"/>
    <path id="Path_269" data-name="Path 269" d="M488.939,1086.188c0-.306,0-.585,0-.864,0-.094-.005-.188,0-.281a.385.385,0,0,1,.414-.4.366.366,0,0,1,.37.409c0,1,0,2.008,0,3.012a.382.382,0,0,1-.426.416q-1.464.009-2.927,0c-.283,0-.423-.155-.426-.445-.006-.45,0-.9,0-1.351,0-.358.134-.492.494-.494.723,0,1.445,0,2.167,0Zm-2.2,1.491h2.178v-.684h-2.178Z" transform="translate(-475.017 -1068.939)" fill="#fff"/>
    <path id="Path_270" data-name="Path 270" d="M491.7,930.364c0,.144,0,.254,0,.364,0,.619,0,1.238,0,1.856a.391.391,0,1,1-.779,0q-.009-2.039,0-4.079c0-.293.144-.418.446-.42q1.069-.007,2.138,0c.31,0,.443.134.449.449.008.45.007.9,0,1.35,0,.349-.133.475-.479.479-.478.005-.956,0-1.435,0Zm1.449-1.476h-1.425v.671h1.425Z" transform="translate(-479.616 -924.156)" fill="#fff"/>
    <path id="Path_271" data-name="Path 271" d="M341.535,876.682c0,1.268,0,2.5,0,3.724,0,.141.008.282,0,.422a.38.38,0,0,1-.4.382.368.368,0,0,1-.379-.4q0-2.251,0-4.5a.373.373,0,0,1,.406-.407q2.251-.008,4.5,0a.375.375,0,0,1,.4.41.384.384,0,0,1-.438.373c-1.238,0-2.476,0-3.714,0Z" transform="translate(-340.745 -875.893)" fill="#fff"/>
    <path id="Path_272" data-name="Path 272" d="M610.169,876.683H606.3a2.7,2.7,0,0,1-.281,0,.37.37,0,0,1-.37-.382.378.378,0,0,1,.382-.4c.047,0,.094,0,.141,0h4.249c.413,0,.538.123.538.534,0,1.426,0,2.852,0,4.278,0,.2-.029.379-.23.471-.29.134-.557-.075-.558-.444,0-1.238,0-2.477,0-3.715Z" transform="translate(-585.718 -875.894)" fill="#fff"/>
    <path id="Path_273" data-name="Path 273" d="M610.136,1145.179v-.335q0-1.8,0-3.6a1.319,1.319,0,0,1,.008-.253.37.37,0,0,1,.415-.335.365.365,0,0,1,.362.361,1.524,1.524,0,0,1,0,.169q0,2.125,0,4.25c0,.41-.126.534-.538.534q-2.139,0-4.277,0c-.238,0-.434-.057-.488-.32-.057-.279.134-.468.476-.469q1.843,0,3.686,0Z" transform="translate(-585.686 -1120.736)" fill="#fff"/>
    <path id="Path_274" data-name="Path 274" d="M341.516,1145.128h3.927a1.339,1.339,0,0,1,.28.01.364.364,0,0,1,.314.376.368.368,0,0,1-.3.388.85.85,0,0,1-.224.013h-4.249c-.411,0-.537-.125-.537-.535,0-1.426,0-2.852,0-4.278,0-.224.04-.415.284-.487.284-.083.5.114.5.462,0,1.032,0,2.064,0,3.1Z" transform="translate(-340.726 -1120.685)" fill="#fff"/>
    <path id="Path_275" data-name="Path 275" d="M487.845,1140.937c.459,0,.918,0,1.377,0,.363,0,.5.131.5.483,0,.45,0,.9,0,1.349,0,.308-.138.457-.443.459q-1.447.011-2.895,0c-.306,0-.441-.151-.445-.457q-.008-.689,0-1.377c0-.318.145-.454.471-.457C486.889,1140.934,487.367,1140.937,487.845,1140.937Zm-1.094.8v.683h2.162v-.683Z" transform="translate(-475.014 -1120.998)" fill="#fff"/>
    <path id="Path_276" data-name="Path 276" d="M396.127,1041.266c.927,0,1,.078,1,1.011s-.09,1.016-1.008,1.016-1.017-.089-1.017-1.006C395.106,1041.334,395.174,1041.266,396.127,1041.266Z" transform="translate(-391.015 -1028.826)" fill="#fff"/>
    <path id="Path_277" data-name="Path 277" d="M576.587,1021.923c-.6,0-1.2,0-1.8,0-.326,0-.5-.148-.489-.408s.173-.379.489-.379q1.84,0,3.68,0c.307,0,.475.145.475.393s-.169.392-.476.393C577.842,1021.925,577.215,1021.923,576.587,1021.923Z" transform="translate(-556.73 -1010.209)" fill="#fff"/>
    <path id="Path_278" data-name="Path 278" d="M387.753,1022.206c.338,0,.676,0,1.013,0s.506.148.5.4-.173.384-.486.386q-1.055.007-2.111,0c-.314,0-.482-.141-.487-.384s.17-.4.5-.4C387.04,1022.2,387.4,1022.206,387.753,1022.206Z" transform="translate(-382.765 -1011.199)" fill="#fff"/>
    <path id="Path_279" data-name="Path 279" d="M570.678,947.8c-.394,0-.788,0-1.182,0-.312-.005-.447-.138-.449-.446q-.007-1.2,0-2.391c0-.313.131-.454.44-.456q1.21-.011,2.419,0c.3,0,.435.134.438.432q.013,1.21,0,2.42c0,.311-.142.438-.457.442C571.485,947.8,571.081,947.8,570.678,947.8Zm-.827-2.5v1.688h1.684V945.3Z" transform="translate(-551.869 -939.335)" fill="#fff"/>
    <path id="Path_280" data-name="Path 280" d="M574.544,1110.171h2.481v2.473h-2.481Z" transform="translate(-556.955 -1092.548)" fill="#fff"/>
    <path id="Path_281" data-name="Path 281" d="M412.567,1105.912c0,.394,0,.788,0,1.182,0,.306-.14.451-.449.454q-1.2.012-2.392,0a.4.4,0,0,1-.456-.45q-.011-1.21,0-2.42c0-.305.15-.434.465-.435q1.182-.005,2.364,0c.326,0,.464.137.468.458C412.57,1105.105,412.567,1105.509,412.567,1105.912Zm-.812.849v-1.714h-1.7c0,.53,0,1.044.006,1.558a.211.211,0,0,0,.142.15C410.717,1106.766,411.231,1106.762,411.754,1106.762Z" transform="translate(-404.107 -1087.064)" fill="#fff"/>
    <path id="Path_282" data-name="Path 282" d="M417.311,952.511h-2.474v-2.477h2.474Z" transform="translate(-409.262 -944.457)" fill="#fff"/>
  </g>
</svg>
