<svg id="search" xmlns="http://www.w3.org/2000/svg" width="23.013" height="23.012" viewBox="0 0 23.013 23.012">
  <path id="Path_345" data-name="Path 345" d="M23.258,23.257a1.438,1.438,0,0,1,2.035,0l5.537,5.537A1.438,1.438,0,1,1,28.8,30.829L23.26,25.292a1.438,1.438,0,0,1,0-2.035Z" transform="translate(-8.239 -8.238)" fill="#8d878b" fill-rule="evenodd"/>
  <path id="Path_346" data-name="Path 346" d="M9.349,17.259a7.91,7.91,0,1,0-7.91-7.91A7.91,7.91,0,0,0,9.349,17.259ZM18.7,9.349A9.349,9.349,0,1,1,9.349,0,9.349,9.349,0,0,1,18.7,9.349Z" fill="#8d878b" fill-rule="evenodd"/>
</svg>
