<svg xmlns="http://www.w3.org/2000/svg" width="21.603" height="21.606" viewBox="0 0 21.603 21.606">
  <g id="Group_103" data-name="Group 103" transform="translate(0 0)">
    <path id="Path_283" data-name="Path 283" d="M-296.58,1269.084h-7.043a2.169,2.169,0,0,1-2.314-2.3q0-7.055,0-14.111a2.168,2.168,0,0,1,2.307-2.31h8.348a1.444,1.444,0,0,1,.291.016.723.723,0,0,1,.573.755.726.726,0,0,1-.675.666c-.075.005-.15,0-.225,0h-8.326a.745.745,0,0,0-.853.852q0,7.067,0,14.133a.746.746,0,0,0,.848.858h14.154a.739.739,0,0,0,.84-.843q0-4.186,0-8.372a1.623,1.623,0,0,1,.01-.27.722.722,0,0,1,.737-.6.726.726,0,0,1,.689.652c.005.052,0,.1,0,.157q0,4.243,0,8.484a2.144,2.144,0,0,1-1.609,2.15,2.673,2.673,0,0,1-.667.075Q-293.035,1269.088-296.58,1269.084Z" transform="translate(305.937 -1247.478)" fill="#fff"/>
    <path id="Path_284" data-name="Path 284" d="M-151.737,1203.877h-2.044c-.877,0-1.755,0-2.632,0a.719.719,0,0,1-.719-.643.717.717,0,0,1,.548-.773,1.143,1.143,0,0,1,.268-.022h6.276a.733.733,0,0,1,.825.812q0,3.172,0,6.345a.714.714,0,0,1-.516.732.674.674,0,0,1-.786-.281,1.014,1.014,0,0,1-.132-.485c-.01-1.455-.006-2.91-.006-4.365v-.284c-.092.085-.151.137-.207.192q-5,4.995-9.988,9.991a.768.768,0,0,1-.824.268.714.714,0,0,1-.342-1.132,2.468,2.468,0,0,1,.187-.194q4.963-4.964,9.927-9.926a1.818,1.818,0,0,1,.214-.16Z" transform="translate(170.818 -1202.436)" fill="#fff"/>
  </g>
</svg>
