<svg xmlns="http://www.w3.org/2000/svg" width="30.289" height="27.7" viewBox="0 0 30.289 27.7">
  <g id="show_more" data-name="show more" transform="translate(-215.6 -157.415)">
    <path id="Path_343" data-name="Path 343" d="M319.977,157.719a1.262,1.262,0,0,0-1.78,1.779l2.891,2.9h-8.943a6.942,6.942,0,1,0,0,13.885,1.262,1.262,0,0,0,0-2.525,4.418,4.418,0,0,1,0-8.836h8.943l-2.891,2.9a1.262,1.262,0,1,0,1.78,1.78l5.049-5.049a1.263,1.263,0,0,0,0-1.78Z" transform="translate(-79.504 0)" fill="#958c95"/>
    <path id="Path_344" data-name="Path 344" d="M215.6,205.39v15.147a3.786,3.786,0,0,0,3.787,3.787h20.2a3.786,3.786,0,0,0,3.787-3.787v-7.574a1.262,1.262,0,1,0-2.524,0v7.574a1.263,1.263,0,0,1-1.263,1.262h-20.2a1.262,1.262,0,0,1-1.262-1.262V205.39a1.262,1.262,0,0,1,1.262-1.262h3.787a1.262,1.262,0,1,0,0-2.524h-3.787a3.786,3.786,0,0,0-3.787,3.787Z" transform="translate(0 -39.208)" fill="#958c95"/>
  </g>
</svg>
