<svg xmlns="http://www.w3.org/2000/svg" width="17.657" height="17.657" viewBox="0 0 17.657 17.657">
  <path id="Path_299" data-name="Path 299" d="M10.056,1.387H8.087c-.845,0-1.69,0-2.535,0A.691.691,0,0,1,5.386.022,1.1,1.1,0,0,1,5.644,0h6.046a.706.706,0,0,1,.8.782q0,3.056,0,6.112a.688.688,0,0,1-.5.705.649.649,0,0,1-.757-.271A.977.977,0,0,1,11.1,6.86c-.009-1.4-.006-2.8-.006-4.2V2.383c-.088.082-.146.132-.2.185Q6.087,7.379,1.277,12.193a.74.74,0,0,1-.793.258.688.688,0,0,1-.33-1.09,2.359,2.359,0,0,1,.18-.187Q5.115,6.391,9.9,1.611a1.741,1.741,0,0,1,.206-.154Z" transform="translate(0 8.828) rotate(-45)" fill="#48d247"/>
</svg>
